<?xml version="1.0" encoding="UTF-8"?>
<svg width="456px" height="456px" viewBox="0 0 456 456" version="1.1" xmlns="http://www.w3.org/2000/svg" xmlns:xlink="http://www.w3.org/1999/xlink">
    <title>Untitled</title>
    <g id="Page-1" stroke="none" stroke-width="1" fill="none" fill-rule="evenodd">
        <g id="Group" transform="translate(64.000000, 162.000000)" fill="#FFFFFF" fill-rule="nonzero">
            <polygon id="Path" points="0 0 29.4742094 70.7784999 30.4822183 132 57.4696664 132 58.1703738 70.7784999 89 0 58.1703738 0 43.6428095 46.0784014 29.4742094 0"></polygon>
            <path d="M129.458102,63.1175648 C142.37239,62.6754795 140.73993,75.4081314 140.516496,87.1147154 C140.289854,98.9813996 139.003771,108.714727 129.80341,108.304896 C120.366786,107.88442 118.408261,97.3641105 118.408261,85.604834 C118.408261,73.7363401 118.518375,63.4941836 129.458102,63.1175648 Z M128.256475,38.008548 C120.516454,38.1881285 89.6385845,41.58781 91.0466481,84.4914774 C92.6559095,133.52494 130.959067,131.927131 130.959067,131.927131 C130.959067,131.927131 166.600578,135.918992 167.968979,84.8116779 C169.257201,36.7403072 129.994772,38.0237703 129.994772,38.0237703 C129.994772,38.0237703 129.361886,37.9826807 128.256475,38.008548 Z" id="Shape"></path>
            <path d="M185,40 L185,101.647779 C185,101.647779 186.230477,130.817189 220.945457,131 C252.569888,131.164391 255,101.647779 255,101.647779 L255,40 L227,40 L227.12443,100.967115 C227.12443,100.967115 227.26694,106.990211 220.361592,107.466282 C211.675934,108.065897 211.64722,101.471303 211.64722,101.471303 L210.634761,40 L185,40 Z" id="Path"></path>
            <path d="M278,40.1145285 L278.545825,132 L301.724494,132 L302.782555,79.6833967 C302.782555,79.6833967 303.405005,72.3270105 309.062692,67.8178337 C316.048202,62.2512258 329,65.8216987 329,65.8216987 L328.805812,37.6668881 C328.805812,37.6668881 321.931566,35.3443868 315.897051,39.3677545 C309.862535,43.3913359 302.683887,54.8300793 302.683887,54.8300793 L302.531685,40.1408173 L278,40.1145285 Z" id="Path"></path>
            <path d="M226,41.6461073 C226,41.6461073 226.217619,4.39990553 263.874332,5.0073501 C304.078155,5.65590736 301.981291,43 301.981291,43 L276.883248,42.7422708 C276.883248,42.7422708 278.477336,28.8159619 264.916331,29.1361009 C253.311756,29.4103257 254.281931,41.9697135 254.281931,41.9697135 L226,41.6461073 Z" id="Path"></path>
        </g>
    </g>
</svg>