<?xml version="1.0" encoding="UTF-8"?>
<svg width="24px" height="24px" viewBox="0 0 24 24" version="1.1" xmlns="http://www.w3.org/2000/svg" xmlns:xlink="http://www.w3.org/1999/xlink">
    <title>Untitled</title>
    <g id="Page-1" stroke="none" stroke-width="1" fill="none" fill-rule="evenodd">
        <g id="home" fill="#000000" fill-rule="nonzero">
            <path d="M10.970069,0.684374898 C8.72126897,2.83125105 0.916535172,10.3125069 0.50078731,10.7343982 C0.0850394483,11.1562075 0,11.3437513 0,11.5780989 C0,11.8125286 0.0661417655,11.9812687 0.236220414,12.1406481 C0.443322207,12.3346787 0.491338759,12.3749957 2.03149241,12.3749957 L3.59054897,12.3749957 L3.59054897,17.915584 L3.59054897,23.4562544 C3.59054897,23.4562544 3.58110621,23.6343553 3.77952828,23.8124562 C3.97795034,23.9906392 4.13858483,24 4.13858483,24 L6.36850759,24 L8.59845517,24 L8.59845517,19.7343645 L8.59845517,15.4593682 C8.59845517,15.4593682 8.59845517,15.2812673 8.74013793,15.1406095 C8.88190345,14.9999516 9.0614069,14.9999516 9.0614069,14.9999516 L12,14.9999516 L14.9385931,14.9999516 C14.9385931,14.9999516 15.1180966,14.9999516 15.2598621,15.1406095 C15.4015448,15.2812673 15.4015448,15.4593682 15.4015448,15.4593682 L15.4015448,19.7343645 L15.4015448,24 L17.6314759,24 L19.8614069,24 C19.8614069,24 20.1105931,23.9683048 20.2677517,23.8124562 C20.4248276,23.6566077 20.4094345,23.4562544 20.4094345,23.4562544 L20.4094345,17.915584 L20.4094345,12.3749957 L21.9685241,12.3749957 C23.5086621,12.3749957 23.5370483,12.3749957 23.7638069,12.1406481 C23.9338759,11.9812687 24,11.8125286 24,11.5780989 C24,11.2875046 23.9149241,11.1562075 23.5086621,10.7343982 C23.0834483,10.3125069 15.278731,2.83125105 13.029931,0.684374898 C12.4346483,0.121874955 12.2551448,0 12,0 C11.7448552,0 11.5653517,0.121874955 10.970069,0.684374898 Z" id="Path"></path>
        </g>
    </g>
</svg>