<?xml version="1.0" encoding="UTF-8"?>
<svg width="24px" height="24px" viewBox="0 0 24 24" version="1.1" xmlns="http://www.w3.org/2000/svg" xmlns:xlink="http://www.w3.org/1999/xlink">
    <title>Untitled</title>
    <g id="Page-1" stroke="none" stroke-width="1" fill="none" fill-rule="evenodd">
        <g id="Black" fill="#000000" fill-rule="nonzero">
            <path d="M10.3886344,0.170945228 C8.21500478,0.697670137 6.31025622,2.62524088 5.783655,4.8217781 C4.84248186,8.84505832 8.09175197,12.7674302 12.1701659,12.5096987 C15.9235992,12.2855376 18.6798939,8.84505832 18.0524869,5.15798397 C17.4698307,1.68386267 13.8620168,-0.669567642 10.3886344,0.170945228 Z" id="Path"></path>
            <path d="M5.29248874,12.9785942 C4.29870422,13.6579357 2.94669203,14.98144 2.24179364,15.9887104 C0.889785148,17.9095038 0,20.6267762 0,22.8405069 C0,23.3089635 0.0577782408,23.5901122 0.231113517,23.765725 C0.404447963,23.9414312 0.566227332,24 0.566227332,24 L12.0179066,24 L23.4695055,24 C23.4695055,24 23.6891055,23.9414312 23.8046747,23.7071562 C23.9202439,23.4729747 24.1166747,22.852202 23.9086132,21.3529914 C23.5504594,18.7645516 22.3370749,16.3283344 20.4419981,14.4074474 C19.6561828,13.622757 17.9806137,12.5217391 17.7957214,12.5217391 C17.6108291,12.5217391 17.472183,12.5569178 17.2410446,12.7443191 C16.4783985,13.3650919 15.4499063,13.9272958 14.5023679,14.2435297 C13.6819372,14.5128899 13.3930141,14.5480686 12.0179066,14.5480686 C10.642799,14.5480686 10.353876,14.5128899 9.53344527,14.2435297 C8.58585151,13.9272958 7.55739622,13.3650919 6.79472245,12.7443191 C6.5636117,12.5569178 6.48272248,12.5217391 6.24005481,12.5217391 C5.99738714,12.5217391 5.76627639,12.6623603 5.29248874,12.9785942 Z" id="Path"></path>
        </g>
    </g>
</svg>