<?xml version="1.0" encoding="UTF-8"?>
<svg width="24px" height="21px" viewBox="0 0 24 21" version="1.1" xmlns="http://www.w3.org/2000/svg" xmlns:xlink="http://www.w3.org/1999/xlink">
    <title>Untitled</title>
    <g id="Page-1" stroke="none" stroke-width="1" fill="none" fill-rule="evenodd">
        <g id="Black" fill="#000000" fill-rule="nonzero">
            <path d="M8.56466529,0.173684242 C7.73646024,0.605368788 7.57645891,0.990128416 7.57645891,2.58547948 L7.57645891,3.85237933 L4.63999661,3.88052898 C1.8258824,3.90868691 1.67529438,3.91807288 1.31764678,4.11514527 C0.875296022,4.34975329 0.423528629,4.80959162 0.178823299,5.26942996 C0.0282352752,5.55095958 0,5.81372552 0,6.95862423 C0,8.29117621 0.00941181377,8.32878639 0.301176379,8.95747291 C0.66823479,9.73643448 1.42117657,10.5434794 2.06117359,10.8531421 C2.32470471,10.9751681 4.45175535,11.6414648 6.77646055,12.3264838 L11.0117103,13.5652174 L11.9999831,13.5652174 L12.988256,13.5652174 L17.0823393,12.3734551 C19.3317297,11.7165195 21.4023254,11.0877501 21.6846416,10.9751681 C22.4376233,10.6748665 23.2187701,9.90534894 23.6423275,9.04197156 L24,8.32878639 L24,6.96801021 C24,5.43834442 23.9152553,5.14742882 23.2752666,4.55621165 C22.5881698,3.90868691 22.6070296,3.90868691 19.3693664,3.88052898 L16.4234907,3.85237933 L16.4234907,2.58547948 C16.4234907,0.980742439 16.2634728,0.595984467 15.4164411,0.16430075 C14.974107,-0.0609259257 8.98822267,-0.0515402797 8.56466529,0.173684242 Z M14.8988337,2.70748062 L14.9269989,3.8617653 L11.9999831,3.8617653 L9.08235576,3.8617653 L9.08235576,2.75440222 C9.08235576,2.1444131 9.110604,1.60950351 9.14824062,1.58134558 C9.18587724,1.54380996 10.4847145,1.525038 12.0376198,1.53442398 L14.8705855,1.56258191 L14.8988337,2.70748062 Z" id="Shape"></path>
            <path d="M0,15.2002077 C0,19.2861392 0.0187500414,19.4226235 0.562500414,20.0687345 C0.72187531,20.2507671 1.05937655,20.5055805 1.3312469,20.6329872 L1.8187531,20.8695652 L12,20.8695652 L22.1812138,20.8695652 L22.6687448,20.6329872 C22.9406069,20.5055805 23.2780966,20.2507671 23.4374897,20.0687345 C23.9812138,19.4226235 24,19.2861392 24,15.2002077 L24,11.4782609 L23.5780966,11.8422456 C22.8187862,12.4883567 22.2187862,12.7158572 18.0468414,13.898908 C12.9468414,15.3366919 12.9656276,15.3276144 12,15.3276144 C11.0437241,15.3276144 11.0718621,15.3366919 6.09374897,13.9352984 C2.00625103,12.7886381 1.16250207,12.4792792 0.440625103,11.860481 L0,11.4782609 L0,15.2002077 Z" id="Path"></path>
        </g>
    </g>
</svg>