<?xml version="1.0" encoding="UTF-8"?>
<svg width="24px" height="25px" viewBox="0 0 24 25" version="1.1" xmlns="http://www.w3.org/2000/svg" xmlns:xlink="http://www.w3.org/1999/xlink">
    <title>Untitled</title>
    <g id="Page-1" stroke="none" stroke-width="1" fill="none" fill-rule="evenodd">
        <g id="Vector" transform="translate(0.000001, 0.075400)" fill="#000000" fill-rule="nonzero">
            <path d="M18.7266414,0.0793402079 C17.4434896,0.344350017 16.3275898,1.16727162 15.672054,2.33889552 C15.3094531,3.00839996 15.2676179,3.20366913 15.2676179,4.38924399 L15.2676179,5.70034208 L11.6271609,7.51356848 L7.97284164,9.34076358 L7.31728817,8.75492948 C5.37852968,7.03934208 2.10078004,7.49961752 0.719934233,9.66152938 C-1.00960235,12.3674313 0.524663288,15.7847083 3.74663034,16.3984089 C5.05772842,16.6494199 6.35488441,16.2588993 7.38702526,15.3383484 L7.97284164,14.8083181 L11.6132454,16.6355044 L15.2676179,18.4486865 L15.2676179,19.620337 C15.2815334,21.0290829 15.5744682,21.8101242 16.4810149,22.702844 C17.4294854,23.6652301 18.2524505,24 19.5914416,24 C21.4186279,23.9859959 22.757619,23.1491153 23.5247447,21.5870328 C24.054775,20.471133 24.0686905,18.9089619 23.5526644,17.7931507 C22.8133697,16.2449838 21.572053,15.4081032 19.8146216,15.3104287 C18.5034615,15.2406739 17.4713206,15.5893594 16.5926049,16.3984089 L16.006824,16.9423547 L12.3524515,15.1151684 L8.7120743,13.3019863 L8.7120743,12.0744965 L8.7120743,10.8470954 L12.3664556,9.03391329 L16.006824,7.20671819 L16.5229387,7.69488669 C17.3458151,8.46202128 18.0571902,8.76888044 19.2427562,8.83865298 C20.0796367,8.88048815 20.4562418,8.83865298 21.0699424,8.60150433 C22.0741636,8.22490808 23.0505538,7.36014334 23.5386602,6.4395836 C23.8595147,5.82587416 23.9152653,5.56085903 23.9152653,4.47292318 C23.9152653,3.37104524 23.8595147,3.11998108 23.5386602,2.49232953 C22.5901897,0.693047881 20.609667,-0.297253378 18.7266414,0.0793402079 Z" id="Path"></path>
        </g>
    </g>
</svg>