<svg width="19" height="20" viewBox="0 0 19 20" fill="none" xmlns="http://www.w3.org/2000/svg">
<path d="M17.5191 19.0681C18.0863 18.9612 18.5876 18.5749 18.8671 18.0243C19.0561 17.6544 19.0397 16.8407 18.8424 16.4544C18.6369 16.0681 10.5905 8.0382 10.2125 7.84917C9.80974 7.64369 9.08647 7.66835 8.63443 7.89026C8.14129 8.13683 0.588045 15.6572 0.251066 16.2325C-0.291386 17.1695 0.0784683 18.3859 1.04009 18.8297C1.45104 19.0188 2.22362 19.0352 2.58526 18.8544C2.7332 18.7804 4.31124 17.2681 6.09476 15.4846C7.8865 13.7011 9.38235 12.2463 9.42345 12.2463C9.46455 12.2463 10.9851 13.7175 12.7932 15.5175C14.7822 17.5065 16.1959 18.8462 16.3685 18.9201C16.7383 19.0845 17.1575 19.1338 17.5191 19.0681Z" fill="#724E9F"/>
<path d="M17.5273 11.2353C18.0369 11.0874 18.3821 10.8244 18.6451 10.3724C18.941 9.871 18.9656 9.09019 18.6944 8.58884C18.5958 8.3998 16.8205 6.56697 14.5438 4.29853C10.3275 0.0904088 10.2288 0.00821898 9.46447 0C8.68367 0 8.56038 0.106847 4.27829 4.40537C-0.127081 8.82719 -0.0613289 8.75321 0.0372982 9.62443C0.19346 10.9148 1.53315 11.671 2.68381 11.1203C2.81531 11.0545 4.40158 9.53402 6.19332 7.74228L9.46447 4.47934L12.7274 7.74228C14.5274 9.53402 16.1054 11.0545 16.2451 11.1203C16.615 11.3011 17.1081 11.3422 17.5273 11.2353Z" fill="#724E9F"/>
</svg>
